<?xml version="1.0" encoding="UTF-8"?>
<svg width="176px" height="176px" viewBox="0 0 176 176" version="1.1" xmlns="http://www.w3.org/2000/svg" xmlns:xlink="http://www.w3.org/1999/xlink">
    <!-- Generator: Sketch 45.1 (43504) - http://www.bohemiancoding.com/sketch -->
    <title>Group 13</title>
    <desc>Created with Sketch.</desc>
    <defs>
        <linearGradient x1="50%" y1="15.1471469%" x2="50%" y2="114.838234%" id="linearGradient-1">
            <stop stop-color="#2C2E3A" offset="0%"></stop>
            <stop stop-color="#292B34" offset="100%"></stop>
        </linearGradient>
        <circle id="path-2" cx="66.1896873" cy="66.1896873" r="66.1896873"></circle>
    </defs>
    <g id="Error/empty-state" stroke="none" stroke-width="1" fill="none" fill-rule="evenodd">
        <g id="error-state" transform="translate(-99.000000, -146.000000)">
            <g id="Group-14-Copy-2">
                <g id="Group-13" transform="translate(99.000000, 146.000000)">
                    <circle id="Oval-Copy" fill="#40424E" cx="87.68347" cy="87.68347" r="87.68347"></circle>
                    <circle id="Oval" fill="#515568" opacity="0.58837183" cx="88.1278136" cy="87.1278136" r="77.1278136"></circle>
                    <g id="Group-2" transform="translate(22.000000, 21.000000)">
                        <mask id="mask-3" fill="white">
                            <use xlink:href="#path-2"></use>
                        </mask>
                        <use id="Mask" fill="url(#linearGradient-1)" xlink:href="#path-2"></use>
                        <g mask="url(#mask-3)">
                            <g transform="translate(-2.706028, 25.241830)">
                                <path d="M0.893752163,59.1794584 C7.27008854,59.3149834 8.9007025,60.1090241 11.9217306,63.2664688 C16.8804557,68.4491112 21.2171187,70.4506706 31.157681,70.4506706 C37.2687389,70.4506706 42.1386821,68.1679973 45.9961101,63.9305838 C48.6635128,61.0004221 50.1959497,58.3017791 53.2409426,51.9874681 C58.1119904,41.8865216 60.5752729,39.1805874 66.3168484,39.1805874 C72.3446913,39.1805874 75.5462062,42.1720552 82.1889251,52.517193 C86.185188,58.7408329 88.1134464,61.3905129 91.1397919,64.2183598 C95.4750167,68.2692362 100.477618,70.4506706 106.474529,70.4506706 C112.319248,70.4506706 116.800546,68.9061358 120.19223,65.8318371 C122.676072,63.5804267 123.903211,61.5343641 126.07245,56.9568035 C129.114374,50.5376914 130.611584,49.1805874 136.633697,49.1805874 C143.625109,49.1805874 148.36303,51.4990901 158.826474,58.8980732 C164.685998,63.0414998 167.392848,64.7991448 171.110389,66.6183241 C176.240936,69.1289586 181.318527,70.4506706 186.792864,70.4506706 C192.790517,70.4506706 197.79373,68.2691975 202.129498,64.2181939 C205.156283,61.3902014 207.084812,58.7403644 211.080979,52.5173346 C217.724426,42.1718284 220.925872,39.1805874 226.953518,39.1805874 C232.979864,39.1805874 236.180674,42.1718176 242.822671,52.5169806 C246.81828,58.740292 248.746206,61.3898378 251.772339,64.2178283 C256.107387,68.2690288 261.109883,70.4506706 267.10674,70.4506706 C273.10413,70.4506706 278.107107,68.2691388 282.442626,64.2180678 C285.469199,61.3900638 287.397584,58.7402286 291.393459,52.517193 C298.036348,42.1717902 301.237516,39.1805874 307.264421,39.1805874 C313.292249,39.1805874 316.493615,42.1718939 323.136729,52.5172638 C327.132921,58.7405635 329.061136,61.390113 332.087692,64.2180804 C336.423238,68.2691464 341.426205,70.4506706 347.423588,70.4506706 C353.421025,70.4506706 358.424098,68.2693536 362.759821,64.2186118 C365.78659,61.3907881 367.715137,58.7411043 371.711426,52.5183442 C378.355819,42.1721314 381.557889,39.1805874 387.587215,39.1805874 C393.616541,39.1805874 396.818611,42.1721314 403.462447,52.5174762 C407.459294,58.7411043 409.38784,61.3907881 412.414609,64.2186118 C416.750332,68.2693536 421.753405,70.4506706 427.750842,70.4506706 C433.748758,70.4506706 438.752207,68.2692563 443.088223,64.2183199 C446.11522,61.3903391 448.043893,58.7405001 452.040352,52.5174762 C458.684358,42.1718665 461.886082,39.1805874 467.914469,39.1805874 C473.94378,39.1805874 477.145701,42.1719701 483.789932,52.517547 C487.786708,58.7408349 489.715211,61.3903883 492.742191,64.2183325 C497.078234,68.2692639 502.081673,70.4506706 508.079582,70.4506706 C514.078018,70.4506706 519.081928,68.2693813 523.418469,64.2185846 C526.445872,61.3906634 528.374664,58.7411063 532.372024,52.5178302 C539.017371,42.1720464 542.219848,39.1805874 548.250642,39.1805874 C554.281435,39.1805874 557.483913,42.1720464 564.12926,52.5178302 C568.12662,58.7411063 570.055411,61.3906634 573.082815,64.2185846 C577.419356,68.2693813 582.423266,70.4506706 588.421701,70.4506706 L588.421701,60.4506706 C582.390908,60.4506706 579.18843,57.4592116 572.543084,47.1134278 C568.545723,40.8901517 566.616932,38.2405946 563.589528,35.4126734 C559.252987,31.3618767 554.249078,29.1805874 548.250642,29.1805874 C542.252206,29.1805874 537.248296,31.3618767 532.911755,35.4126734 C529.884352,38.2405946 527.955561,40.8901517 523.9582,47.1134278 C517.312853,57.4592116 514.110376,60.4506706 508.079582,60.4506706 C502.050271,60.4506706 498.84835,57.4592879 492.20412,47.113711 C488.207343,40.8904231 486.27884,38.2408698 483.25186,35.4129255 C478.915817,31.3619941 473.912378,29.1805874 467.914469,29.1805874 C461.917032,29.1805874 456.913959,31.3619044 452.578236,35.4126462 C449.551467,38.2404699 447.622921,40.8901537 443.626631,47.1129138 C436.982238,57.4591266 433.780168,60.4506706 427.750842,60.4506706 C421.722455,60.4506706 418.520731,57.4593915 411.877283,47.1146498 C407.880266,40.8907579 405.951593,38.240919 402.924597,35.4129381 C398.58858,31.3620017 393.585131,29.1805874 387.587215,29.1805874 C381.589299,29.1805874 376.58585,31.3620017 372.249834,35.4129381 C369.222837,38.240919 367.294164,40.8907579 363.297705,47.1137818 C356.653699,57.4593915 353.451976,60.4506706 347.423588,60.4506706 C341.39576,60.4506706 338.194394,57.4593641 331.55128,47.1139942 C327.555088,40.8906945 325.626873,38.241145 322.600316,35.4131776 C318.264771,31.3621116 313.261804,29.1805874 307.264421,29.1805874 C301.26751,29.1805874 296.264908,31.3620218 291.929683,35.4128982 C288.903338,38.2407451 286.975079,40.8904251 282.979374,47.1131969 C276.336097,57.4592028 273.134583,60.4506706 267.10674,60.4506706 C261.080394,60.4506706 257.879584,57.4594404 251.237587,47.1142774 C247.241978,40.890966 245.314052,38.2414202 242.287919,35.4134297 C237.952871,31.3622292 232.950375,29.1805874 226.953518,29.1805874 C220.956344,29.1805874 215.953507,31.3619631 211.618033,35.4127722 C208.591476,38.2406075 206.663073,40.8902894 202.667076,47.1130553 C196.023241,57.4591647 192.821449,60.4506706 186.792864,60.4506706 C179.801452,60.4506706 175.063531,58.1321679 164.600087,50.7331848 C158.740563,46.5897582 156.033713,44.8321132 152.316172,43.0129339 C147.185625,40.5022994 142.108034,39.1805874 136.633697,39.1805874 C130.788978,39.1805874 126.307681,40.7251223 122.915996,43.799421 C120.432154,46.0508313 119.66931,48.0980959 117.035776,52.6744545 C113.292374,59.1794584 112.496643,60.4506706 106.474529,60.4506706 C100.447625,60.4506706 97.2464566,57.4594678 90.604125,47.1149331 C86.6076927,40.8910294 84.679308,38.2411942 81.6527345,35.4131902 C77.3172159,31.3621192 72.3142385,29.1805874 66.3168484,29.1805874 C60.2057904,29.1805874 55.3358473,31.4632607 51.4784192,35.7006742 C48.8110166,38.6308359 47.2785797,41.3294789 44.2335867,47.6437899 C39.362539,57.7447364 36.8992565,60.4506706 31.157681,60.4506706 C24.0560459,60.4506706 22.8415811,58.8980732 19.151548,56.3577945 C14.3771689,51.367825 10.288639,49.3768823 1.10624784,49.1817164 L0.893752163,59.1794584 Z" id="Page-1" stroke="#999EBA" stroke-width="2" fill="none" fill-rule="nonzero"></path>
                                <path d="M52.0052623,29.3788552 C53.7966484,29.7663124 56.7552659,29.3023549 60.8811148,27.9869828 C65.0069636,26.6716107 72.3337696,27.1355681 82.8615327,29.3788552 L72.8278898,49.8016028 L65.1576361,49.8016028 L52.0052623,29.3788552 Z" id="Rectangle" stroke="none" fill="#2B2D37" fill-rule="evenodd"></path>
                                <g id="Group" stroke="none" stroke-width="1" fill="none" fill-rule="evenodd" transform="translate(56.116194, 33.729266)">
                                    <path d="M0.280464777,2.52418299 L2.95644302,0" id="Path-3" stroke="#FCB328"></path>
                                    <path d="M1.40232388,4.20697165 L4.63923168,2.24371821" id="Path-3-Copy" stroke="#FCB328"></path>
                                </g>
                                <g id="Group" stroke="none" stroke-width="1" fill="none" fill-rule="evenodd" transform="translate(76.614306, 37.912055) scale(-1, 1) translate(-76.614306, -37.912055) translate(74.114306, 35.412055)">
                                    <path d="M0.280464777,2.52418299 L2.95644302,0" id="Path-3" stroke="#FCB328"></path>
                                    <path d="M1,4.9661102 L4.2369078,3" id="Path-3-Copy" stroke="#FCB328"></path>
                                </g>
                                <polygon id="Path-2" stroke="none" fill="#FFD359" fill-rule="evenodd" points="49 11 50.546336 20.7449879 55.6655386 19.1892314 58.8670964 27.1654807 56.8147153 15.6693852 52.8628545 17.1193708"></polygon>
                                <polygon id="Path-2-Copy-3" stroke="none" fill="#FDE297" fill-rule="evenodd" transform="translate(39.332051, 18.815077) rotate(-20.000000) translate(-39.332051, -18.815077) " points="35.5814482 12.6703815 36.7570104 20.0787582 40.6487527 18.8960343 43.0826548 24.959773 41.5223848 16.2201617 38.5180841 17.3224759"></polygon>
                                <polygon id="Path-2-Copy-4" stroke="none" fill="#FADF94" fill-rule="evenodd" transform="translate(90.181998, 11.196764) rotate(-307.000000) translate(-90.181998, -11.196764) " points="86.4313951 5.05206852 87.6069573 12.4604453 91.4986995 11.2777214 93.9326017 17.34146 92.3723317 8.6018487 89.368031 9.70416298"></polygon>
                                <polygon id="Path-2-Copy" stroke="none" fill="#FCC428" fill-rule="evenodd" transform="translate(67.579276, 13.399902) rotate(-330.000000) translate(-67.579276, -13.399902) " points="61.1245378 1.65367262 63.1476646 15.8155601 69.8453006 13.5546595 74.0340134 25.1461306 71.3488097 8.43944891 66.1784487 10.546638"></polygon>
                                <polygon id="Path-2-Copy-2" stroke="none" fill="#FFD55F" fill-rule="evenodd" transform="translate(79.078139, 24.718226) rotate(-315.000000) translate(-79.078139, -24.718226) " points="76.0017089 19.1197883 76.965963 25.8695672 80.158162 24.7919864 82.1545686 30.3166643 80.8747581 22.3539963 78.4104825 23.3583159"></polygon>
                            </g>
                        </g>
                    </g>
                </g>
            </g>
        </g>
    </g>
</svg>
