<?xml version="1.0" encoding="UTF-8"?>
<svg width="16px" height="16px" viewBox="0 0 16 16" version="1.1" xmlns="http://www.w3.org/2000/svg" xmlns:xlink="http://www.w3.org/1999/xlink">
    <!-- Generator: Sketch 45.1 (43504) - http://www.bohemiancoding.com/sketch -->
    <title> copy</title>
    <desc>Created with Sketch.</desc>
    <defs></defs>
    <g id="Storyblocks" stroke="none" stroke-width="1" fill="none" fill-rule="evenodd">
        <g id="perso-rating-2" transform="translate(-178.000000, -33.000000)" fill="#FCC428">
            <path d="M193.892857,39.5664063 C193.892857,39.7055439 193.810641,39.857328 193.646205,40.0217634 L190.202567,43.3800223 L191.018415,48.1233259 C191.02474,48.1675969 191.027902,48.2308404 191.027902,48.313058 C191.027902,48.4458712 190.994699,48.5581283 190.928292,48.6498326 C190.861886,48.7415369 190.76544,48.7873884 190.638951,48.7873884 C190.518787,48.7873884 190.3923,48.7494423 190.259487,48.6735491 L186,46.4347098 L181.740513,48.6735491 C181.601376,48.7494423 181.474889,48.7873884 181.361049,48.7873884 C181.228236,48.7873884 181.128628,48.7415369 181.062221,48.6498326 C180.995814,48.5581283 180.962612,48.4458712 180.962612,48.313058 C180.962612,48.2751114 180.968936,48.211868 180.981585,48.1233259 L181.797433,43.3800223 L178.344308,40.0217634 C178.186197,39.8510036 178.107143,39.6992194 178.107143,39.5664063 C178.107143,39.3324021 178.284224,39.1869422 178.638393,39.1300223 L183.40067,38.4375 L185.535156,34.1210938 C185.655321,33.8617919 185.810267,33.7321429 186,33.7321429 C186.189733,33.7321429 186.344679,33.8617919 186.464844,34.1210938 L188.59933,38.4375 L193.361607,39.1300223 C193.715776,39.1869422 193.892857,39.3324021 193.892857,39.5664063 Z" id="-copy"></path>
        </g>
    </g>
</svg>
