<?xml version="1.0" encoding="UTF-8" standalone="no"?>
<svg width="17px" height="17px" viewBox="0 0 17 17" version="1.1" xmlns="http://www.w3.org/2000/svg" xmlns:xlink="http://www.w3.org/1999/xlink">
    <!-- Generator: Sketch 45.2 (43514) - http://www.bohemiancoding.com/sketch -->
    <title>icon-close</title>
    <desc>Created with Sketch.</desc>
    <defs></defs>
    <g id="Inbox" stroke="none" stroke-width="1" fill="none" fill-rule="evenodd">
        <g id="007-personetics-copy" transform="translate(-337.000000, -24.000000)" stroke="#FFFFFF" fill="#FFFFFF">
            <g id="navCloseTitle" transform="translate(69.000000, 20.000000)">
                <g id="icon-close" transform="translate(269.000000, 5.000000)">
                    <g id="Combined-Shape">
                        <path d="M7.5,6.44888783 L1.2723704,0.221258232 C0.974274053,-0.0768381192 0.510272238,-0.0702409849 0.220015627,0.220015627 C-0.0722646007,0.512295854 -0.0696846516,0.981427521 0.221258232,1.2723704 L6.44888783,7.5 L0.221258232,13.7276296 C-0.0768381192,14.0257259 -0.0702409849,14.4897278 0.220015627,14.7799844 C0.512295854,15.0722646 0.981427521,15.0696847 1.2723704,14.7787418 L7.5,8.55111217 L13.7276296,14.7787418 C14.0257259,15.0768381 14.4897278,15.070241 14.7799844,14.7799844 C15.0722646,14.4877041 15.0696847,14.0185725 14.7787418,13.7276296 L8.55111217,7.5 L14.7787418,1.2723704 C15.0768381,0.974274053 15.070241,0.510272238 14.7799844,0.220015627 C14.4877041,-0.0722646007 14.0185725,-0.0696846516 13.7276296,0.221258232 L7.5,6.44888783 Z" stroke-width="0.75"></path>
                    </g>
                </g>
            </g>
        </g>
    </g>
</svg>