<?xml version="1.0" encoding="UTF-8"?>
<svg width="16px" height="16px" viewBox="0 0 16 16" version="1.1" xmlns="http://www.w3.org/2000/svg" xmlns:xlink="http://www.w3.org/1999/xlink">
    <!-- Generator: Sketch 45.1 (43504) - http://www.bohemiancoding.com/sketch -->
    <title>star</title>
    <desc>Created with Sketch.</desc>
    <defs></defs>
    <g id="Storyblocks" stroke="none" stroke-width="1" fill="none" fill-rule="evenodd">
        <g id="perso-rating" transform="translate(-99.000000, -33.000000)" fill="#FCC428">
            <g id="Group-2">
                <g id="Group-3" transform="translate(56.000000, 10.000000)">
                    <g id="Group" transform="translate(43.000000, 23.000000)">
                        <path d="M10.8934152,9.953125 L13.796317,7.13560268 L9.79296875,6.54743304 L8,2.92354911 L6.20703125,6.54743304 L2.20368304,7.13560268 L5.10658482,9.953125 L4.4140625,13.9469866 L8,12.0591518 L11.5764509,13.9469866 L10.8934152,9.953125 Z M15.8928571,6.56640625 C15.8928571,6.70554385 15.8106407,6.85732805 15.6462054,7.02176339 L12.202567,10.3800223 L13.0184152,15.1233259 C13.0247396,15.1675969 13.0279018,15.2308404 13.0279018,15.313058 C13.0279018,15.6292799 12.8982528,15.7873884 12.6389509,15.7873884 C12.5187866,15.7873884 12.3922998,15.7494423 12.2594866,15.6735491 L8,13.4347098 L3.74051339,15.6735491 C3.60137579,15.7494423 3.47488896,15.7873884 3.36104911,15.7873884 C3.22823594,15.7873884 3.12862756,15.7415369 3.06222098,15.6498326 C2.9958144,15.5581283 2.96261161,15.4458712 2.96261161,15.313058 C2.96261161,15.2751114 2.96893595,15.211868 2.98158482,15.1233259 L3.79743304,10.3800223 L0.344308036,7.02176339 C0.186197126,6.85100361 0.107142857,6.69921941 0.107142857,6.56640625 C0.107142857,6.3324021 0.28422442,6.18694225 0.638392857,6.13002232 L5.40066964,5.4375 L7.53515625,1.12109375 C7.65532054,0.861791858 7.81026691,0.732142857 8,0.732142857 C8.18973309,0.732142857 8.34467946,0.861791858 8.46484375,1.12109375 L10.5993304,5.4375 L15.3616071,6.13002232 C15.7157756,6.18694225 15.8928571,6.3324021 15.8928571,6.56640625 Z" id="star"></path>
                    </g>
                </g>
            </g>
        </g>
    </g>
</svg>