<svg 
 xmlns="http://www.w3.org/2000/svg"
 xmlns:xlink="http://www.w3.org/1999/xlink"
 width="20px" height="20px">
<path fill-rule="evenodd"  fill="rgb(54, 47, 45)"
 d="M19.278,11.035 C18.994,11.025 18.709,11.033 18.424,11.033 C18.229,11.033 18.034,11.033 17.839,11.033 C17.272,11.032 17.273,11.020 17.287,10.447 C17.293,10.179 17.386,10.059 17.654,10.062 C18.194,10.070 18.734,10.068 19.274,10.068 C19.639,10.067 19.617,10.326 19.614,10.574 C19.610,10.806 19.622,11.045 19.278,11.035 ZM16.091,6.513 C16.763,6.125 17.408,5.752 18.099,5.353 C18.265,5.626 18.417,5.877 18.607,6.190 C17.930,6.586 17.277,6.968 16.588,7.370 C16.415,7.073 16.267,6.817 16.091,6.513 ZM13.288,4.059 C13.680,3.380 14.054,2.733 14.460,2.031 C14.762,2.207 15.004,2.348 15.301,2.521 C14.920,3.192 14.551,3.840 14.148,4.548 C13.864,4.387 13.600,4.237 13.288,4.059 ZM10.621,2.881 C10.639,3.193 10.598,3.392 10.195,3.384 C9.822,3.376 9.640,3.303 9.667,2.880 C9.700,2.368 9.687,1.852 9.672,1.338 C9.660,0.915 9.948,0.998 10.195,0.984 C10.450,0.970 10.644,1.001 10.622,1.338 C10.602,1.609 10.617,1.882 10.618,2.155 C10.618,2.397 10.607,2.640 10.621,2.881 ZM15.004,9.599 C15.057,9.910 15.053,10.232 15.075,10.549 C15.105,11.900 14.593,13.015 13.716,14.016 C13.460,14.307 13.393,14.769 13.247,15.155 C13.096,15.555 12.917,15.950 12.821,16.363 C12.749,16.666 12.762,16.999 12.790,17.313 C12.832,17.775 12.708,18.137 12.334,18.424 C12.144,18.570 12.002,18.780 11.812,18.926 C11.678,19.029 11.504,19.120 11.341,19.132 C11.077,19.150 10.862,19.152 10.864,19.510 C10.864,19.574 10.705,19.688 10.614,19.694 C10.298,19.716 9.980,19.712 9.665,19.692 C9.582,19.687 9.435,19.589 9.435,19.535 C9.440,19.116 9.164,19.147 8.883,19.135 C8.759,19.130 8.616,19.072 8.521,18.991 C7.876,18.442 7.313,17.867 7.496,16.881 C7.544,16.623 7.290,16.322 7.250,16.031 C7.099,14.924 6.519,14.059 5.935,13.127 C4.015,10.061 5.958,6.117 9.443,5.612 C12.217,5.210 14.602,7.246 15.004,9.599 ZM8.969,17.805 C9.234,18.036 11.085,17.993 11.349,17.765 C11.760,17.413 11.534,16.947 11.587,16.531 C11.622,16.262 11.494,16.142 11.226,16.147 C10.866,16.154 10.505,16.149 10.145,16.149 C9.784,16.149 9.424,16.140 9.064,16.154 C8.955,16.159 8.809,16.195 8.750,16.272 C8.571,16.502 8.746,17.611 8.969,17.805 ZM6.671,9.024 C6.049,10.419 6.218,11.814 7.236,12.977 C7.681,13.485 8.040,13.971 8.112,14.649 C8.143,14.947 8.321,15.040 8.613,15.028 C9.125,15.008 9.638,15.023 10.150,15.023 C10.150,15.022 10.150,15.021 10.150,15.021 C10.617,15.021 11.088,14.986 11.552,15.030 C12.002,15.073 12.145,14.874 12.235,14.468 C12.315,14.101 12.418,13.666 12.667,13.423 C13.853,12.266 14.240,10.703 13.692,9.183 C13.272,8.017 11.862,6.655 10.072,6.733 C8.453,6.803 7.311,7.589 6.671,9.024 ZM10.164,13.573 C10.038,13.582 9.814,13.483 9.786,13.386 C9.564,12.623 9.379,11.849 9.162,11.004 C9.778,11.004 10.288,10.989 10.795,11.018 C10.882,11.023 11.044,11.236 11.026,11.321 C10.879,11.998 10.709,12.672 10.513,13.337 C10.480,13.446 10.289,13.566 10.164,13.573 ZM5.006,2.566 C5.072,2.496 5.098,2.457 5.133,2.434 C5.792,1.983 5.792,1.983 6.181,2.659 C6.443,3.114 6.705,3.568 6.988,4.059 C6.707,4.228 6.455,4.378 6.145,4.564 C5.751,3.874 5.377,3.217 5.006,2.566 ZM1.700,14.893 C2.373,14.498 3.013,14.122 3.711,13.712 C3.883,14.020 4.021,14.266 4.193,14.574 C3.522,14.961 2.868,15.338 2.171,15.741 C2.010,15.452 1.868,15.196 1.700,14.893 ZM1.700,6.197 C1.857,5.912 1.993,5.666 2.165,5.353 C2.833,5.733 3.478,6.100 4.184,6.502 C4.024,6.798 3.879,7.065 3.712,7.373 C3.024,6.971 2.379,6.595 1.700,6.197 ZM3.005,10.656 C3.033,10.881 2.977,11.046 2.697,11.035 C2.411,11.024 2.124,11.033 1.838,11.033 C1.838,11.032 1.838,11.032 1.838,11.031 C1.627,11.031 1.416,11.031 1.205,11.031 C0.660,11.033 0.483,10.805 0.657,10.281 C0.688,10.188 0.846,10.081 0.949,10.078 C1.536,10.059 2.124,10.058 2.712,10.073 C3.135,10.084 2.977,10.428 3.005,10.656 ZM18.603,14.895 C18.422,15.205 18.272,15.460 18.106,15.744 C17.423,15.347 16.778,14.972 16.092,14.574 C16.261,14.281 16.408,14.028 16.582,13.726 C17.260,14.118 17.906,14.491 18.603,14.895 Z"/>
</svg>